<?xml version="1.0" standalone="no"?>
<!DOCTYPE svg PUBLIC "-//W3C//DTD SVG 20010904//EN"
 "http://www.w3.org/TR/2001/REC-SVG-20010904/DTD/svg10.dtd">
<svg version="1.0" xmlns="http://www.w3.org/2000/svg"
 width="650.000000pt" height="150.000000pt" viewBox="0 0 650.000000 150.000000"
 preserveAspectRatio="xMidYMid meet">
<metadata>
Created by potrace 1.16, written by Peter Selinger 2001-2019
</metadata>
<g transform="translate(0.000000,150.000000) scale(0.100000,-0.100000)"
fill="#000000" stroke="none">
<path d="M4537 1322 c-10 -10 -17 -24 -17 -30 0 -7 -9 -12 -19 -12 -31 0 -34
-17 -5 -24 19 -5 25 -12 21 -25 -7 -28 64 -55 138 -53 93 4 119 13 123 46 5
41 -13 54 -86 62 -53 5 -70 12 -85 30 -22 29 -48 31 -70 6z"/>
<path d="M5974 905 c-28 -14 -62 -38 -77 -53 l-27 -28 70 7 c65 7 167 -2 190
-16 14 -9 13 -3 -9 48 -14 33 -27 47 -52 56 -42 14 -37 15 -95 -14z"/>
<path d="M5999 743 c-26 -47 -34 -73 -38 -135 l-6 -77 28 27 c16 15 34 38 40
51 20 41 34 35 41 -16 3 -27 16 -61 29 -76 19 -25 26 -27 49 -18 22 8 26 15
23 43 -10 103 -18 130 -49 160 -21 22 -31 41 -31 62 0 26 -4 31 -26 34 -23 3
-31 -5 -60 -55z"/>
<path d="M2115 320 c-4 -6 -11 -7 -17 -4 -6 4 -8 2 -5 -3 8 -13 -14 -23 -49
-23 -20 0 -26 -8 -39 -52 -22 -76 -47 -112 -97 -140 -34 -19 -42 -29 -40 -49
5 -48 9 -51 55 -44 93 15 143 60 178 159 32 93 42 201 14 156z"/>
</g>
</svg>
